<svg xmlns="http://www.w3.org/2000/svg" width="1080" height="760" font-family="Inter,Arial,sans-serif">
<rect width="1080" height="760" fill="#f6faff"/>
<path d="M240,145.0 C320.0,145.0 320.0,288.0 400,288.0" stroke="#00346f" stroke-width="1.6" fill="none"/>
<line x1="230" y1="138.0" x2="230" y2="152.0" stroke="#00346f" stroke-width="1.6"/>
<path d="M400,288.0 L388,281.0 M400,288.0 L388,295.0 M400,288.0 L388,288.0" stroke="#00346f" stroke-width="1.6" fill="none"/><circle cx="382" cy="288.0" r="3.2" fill="#fff" stroke="#00346f" stroke-width="1.6"/>
<path d="M240,350.0 C320.0,350.0 320.0,288.0 400,288.0" stroke="#00346f" stroke-width="1.6" fill="none"/>
<line x1="230" y1="343.0" x2="230" y2="357.0" stroke="#00346f" stroke-width="1.6"/>
<path d="M400,288.0 L388,281.0 M400,288.0 L388,295.0 M400,288.0 L388,288.0" stroke="#00346f" stroke-width="1.6" fill="none"/><circle cx="382" cy="288.0" r="3.2" fill="#fff" stroke="#00346f" stroke-width="1.6"/>
<path d="M600,288.0 C710.0,288.0 710.0,113.0 820,113.0" stroke="#00346f" stroke-width="1.6" fill="none"/>
<line x1="590" y1="281.0" x2="590" y2="295.0" stroke="#00346f" stroke-width="1.6"/>
<path d="M820,113.0 L808,106.0 M820,113.0 L808,120.0 M820,113.0 L808,113.0" stroke="#00346f" stroke-width="1.6" fill="none"/><circle cx="802" cy="113.0" r="3.2" fill="#fff" stroke="#00346f" stroke-width="1.6"/>
<path d="M600,288.0 C710.0,288.0 710.0,355.0 820,355.0" stroke="#00346f" stroke-width="1.6" fill="none"/>
<line x1="590" y1="281.0" x2="590" y2="295.0" stroke="#00346f" stroke-width="1.6"/>
<path d="M820,355.0 L808,348.0 M820,355.0 L808,362.0 M820,355.0 L808,355.0" stroke="#00346f" stroke-width="1.6" fill="none"/><circle cx="802" cy="355.0" r="3.2" fill="#fff" stroke="#00346f" stroke-width="1.6"/>
<path d="M600,288.0 C710.0,288.0 710.0,553.0 820,553.0" stroke="#00346f" stroke-width="1.6" fill="none"/>
<line x1="590" y1="281.0" x2="590" y2="295.0" stroke="#00346f" stroke-width="1.6"/>
<path d="M820,553.0 L808,546.0 M820,553.0 L808,560.0 M820,553.0 L808,553.0" stroke="#00346f" stroke-width="1.6" fill="none"/><circle cx="802" cy="553.0" r="3.2" fill="#fff" stroke="#00346f" stroke-width="1.6"/>
<rect x="40" y="40" width="200" height="210" rx="8" fill="#fff" stroke="#00346f" stroke-width="1.6"/>
<rect x="40" y="40" width="200" height="28" rx="8" fill="#00346f"/>
<rect x="40" y="60" width="200" height="8" fill="#00346f"/>
<text x="140.0" y="59" fill="#fff" font-size="14" font-weight="700" text-anchor="middle">building</text>
<text x="50" y="83" font-size="11.5" fill="#141d23" text-decoration="underline"><tspan fill="#1565c0" font-weight="700">PK </tspan>building_id</text>
<rect x="41" y="90" width="198" height="22" fill="#f1f5fa"/>
<text x="50" y="105" font-size="11.5" fill="#141d23">name</text>
<text x="50" y="127" font-size="11.5" fill="#141d23">address</text>
<rect x="41" y="134" width="198" height="22" fill="#f1f5fa"/>
<text x="50" y="149" font-size="11.5" fill="#141d23">quadrant</text>
<text x="50" y="171" font-size="11.5" fill="#141d23">plus15_level</text>
<rect x="41" y="178" width="198" height="22" fill="#f1f5fa"/>
<text x="50" y="193" font-size="11.5" fill="#141d23">latitude</text>
<text x="50" y="215" font-size="11.5" fill="#141d23">longitude</text>
<rect x="41" y="222" width="198" height="22" fill="#f1f5fa"/>
<text x="50" y="237" font-size="11.5" fill="#141d23">is_active</text>
<rect x="40" y="300" width="200" height="100" rx="8" fill="#fff" stroke="#00346f" stroke-width="1.6"/>
<rect x="40" y="300" width="200" height="28" rx="8" fill="#00346f"/>
<rect x="40" y="320" width="200" height="8" fill="#00346f"/>
<text x="140.0" y="319" fill="#fff" font-size="14" font-weight="700" text-anchor="middle">category</text>
<text x="50" y="343" font-size="11.5" fill="#141d23" text-decoration="underline"><tspan fill="#1565c0" font-weight="700">PK </tspan>category_id</text>
<rect x="41" y="350" width="198" height="22" fill="#f1f5fa"/>
<text x="50" y="365" font-size="11.5" fill="#141d23">name</text>
<text x="50" y="387" font-size="11.5" fill="#141d23">description</text>
<rect x="400" y="150" width="200" height="276" rx="8" fill="#fff" stroke="#00346f" stroke-width="1.6"/>
<rect x="400" y="150" width="200" height="28" rx="8" fill="#00346f"/>
<rect x="400" y="170" width="200" height="8" fill="#00346f"/>
<text x="500.0" y="169" fill="#fff" font-size="14" font-weight="700" text-anchor="middle">partner</text>
<text x="410" y="193" font-size="11.5" fill="#141d23" text-decoration="underline"><tspan fill="#1565c0" font-weight="700">PK </tspan>partner_id</text>
<rect x="401" y="200" width="198" height="22" fill="#f1f5fa"/>
<text x="410" y="215" font-size="11.5" fill="#141d23">business_name</text>
<text x="410" y="237" font-size="11.5" fill="#141d23"><tspan fill="#1565c0" font-weight="700">FK </tspan>building_id</text>
<rect x="401" y="244" width="198" height="22" fill="#f1f5fa"/>
<text x="410" y="259" font-size="11.5" fill="#141d23"><tspan fill="#1565c0" font-weight="700">FK </tspan>category_id</text>
<text x="410" y="281" font-size="11.5" fill="#141d23">unit_number</text>
<rect x="401" y="288" width="198" height="22" fill="#f1f5fa"/>
<text x="410" y="303" font-size="11.5" fill="#141d23">contact_name</text>
<text x="410" y="325" font-size="11.5" fill="#141d23">contact_email</text>
<rect x="401" y="332" width="198" height="22" fill="#f1f5fa"/>
<text x="410" y="347" font-size="11.5" fill="#141d23">contact_phone</text>
<text x="410" y="369" font-size="11.5" fill="#141d23">description</text>
<rect x="401" y="376" width="198" height="22" fill="#f1f5fa"/>
<text x="410" y="391" font-size="11.5" fill="#141d23">status</text>
<text x="410" y="413" font-size="11.5" fill="#141d23">created_at</text>
<rect x="820" y="30" width="200" height="166" rx="8" fill="#fff" stroke="#00346f" stroke-width="1.6"/>
<rect x="820" y="30" width="200" height="28" rx="8" fill="#00346f"/>
<rect x="820" y="50" width="200" height="8" fill="#00346f"/>
<text x="920.0" y="49" fill="#fff" font-size="14" font-weight="700" text-anchor="middle">opening_hours</text>
<text x="830" y="73" font-size="11.5" fill="#141d23" text-decoration="underline"><tspan fill="#1565c0" font-weight="700">PK </tspan>hours_id</text>
<rect x="821" y="80" width="198" height="22" fill="#f1f5fa"/>
<text x="830" y="95" font-size="11.5" fill="#141d23"><tspan fill="#1565c0" font-weight="700">FK </tspan>partner_id</text>
<text x="830" y="117" font-size="11.5" fill="#141d23">day_of_week</text>
<rect x="821" y="124" width="198" height="22" fill="#f1f5fa"/>
<text x="830" y="139" font-size="11.5" fill="#141d23">open_time</text>
<text x="830" y="161" font-size="11.5" fill="#141d23">close_time</text>
<rect x="821" y="168" width="198" height="22" fill="#f1f5fa"/>
<text x="830" y="183" font-size="11.5" fill="#141d23">is_closed</text>
<rect x="820" y="250" width="200" height="210" rx="8" fill="#fff" stroke="#00346f" stroke-width="1.6"/>
<rect x="820" y="250" width="200" height="28" rx="8" fill="#00346f"/>
<rect x="820" y="270" width="200" height="8" fill="#00346f"/>
<text x="920.0" y="269" fill="#fff" font-size="14" font-weight="700" text-anchor="middle">promotion</text>
<text x="830" y="293" font-size="11.5" fill="#141d23" text-decoration="underline"><tspan fill="#1565c0" font-weight="700">PK </tspan>promotion_id</text>
<rect x="821" y="300" width="198" height="22" fill="#f1f5fa"/>
<text x="830" y="315" font-size="11.5" fill="#141d23"><tspan fill="#1565c0" font-weight="700">FK </tspan>partner_id</text>
<text x="830" y="337" font-size="11.5" fill="#141d23">title</text>
<rect x="821" y="344" width="198" height="22" fill="#f1f5fa"/>
<text x="830" y="359" font-size="11.5" fill="#141d23">details</text>
<text x="830" y="381" font-size="11.5" fill="#141d23">discount_pct</text>
<rect x="821" y="388" width="198" height="22" fill="#f1f5fa"/>
<text x="830" y="403" font-size="11.5" fill="#141d23">start_date</text>
<text x="830" y="425" font-size="11.5" fill="#141d23">end_date</text>
<rect x="821" y="432" width="198" height="22" fill="#f1f5fa"/>
<text x="830" y="447" font-size="11.5" fill="#141d23">is_featured</text>
<rect x="820" y="470" width="200" height="166" rx="8" fill="#fff" stroke="#00346f" stroke-width="1.6"/>
<rect x="820" y="470" width="200" height="28" rx="8" fill="#00346f"/>
<rect x="820" y="490" width="200" height="8" fill="#00346f"/>
<text x="920.0" y="489" fill="#fff" font-size="14" font-weight="700" text-anchor="middle">lease</text>
<text x="830" y="513" font-size="11.5" fill="#141d23" text-decoration="underline"><tspan fill="#1565c0" font-weight="700">PK </tspan>lease_id</text>
<rect x="821" y="520" width="198" height="22" fill="#f1f5fa"/>
<text x="830" y="535" font-size="11.5" fill="#141d23"><tspan fill="#1565c0" font-weight="700">FK </tspan>partner_id</text>
<text x="830" y="557" font-size="11.5" fill="#141d23">start_date</text>
<rect x="821" y="564" width="198" height="22" fill="#f1f5fa"/>
<text x="830" y="579" font-size="11.5" fill="#141d23">end_date</text>
<text x="830" y="601" font-size="11.5" fill="#141d23">monthly_rent</text>
<rect x="821" y="608" width="198" height="22" fill="#f1f5fa"/>
<text x="830" y="623" font-size="11.5" fill="#141d23">status</text>
<rect x="400" y="560" width="200" height="188" rx="8" fill="#fff" stroke="#00346f" stroke-width="1.6"/>
<rect x="400" y="560" width="200" height="28" rx="8" fill="#00346f"/>
<rect x="400" y="580" width="200" height="8" fill="#00346f"/>
<text x="500.0" y="579" fill="#fff" font-size="14" font-weight="700" text-anchor="middle">portal_user</text>
<text x="410" y="603" font-size="11.5" fill="#141d23" text-decoration="underline"><tspan fill="#1565c0" font-weight="700">PK </tspan>user_id</text>
<rect x="401" y="610" width="198" height="22" fill="#f1f5fa"/>
<text x="410" y="625" font-size="11.5" fill="#141d23">username</text>
<text x="410" y="647" font-size="11.5" fill="#141d23">full_name</text>
<rect x="401" y="654" width="198" height="22" fill="#f1f5fa"/>
<text x="410" y="669" font-size="11.5" fill="#141d23">email</text>
<text x="410" y="691" font-size="11.5" fill="#141d23">role</text>
<rect x="401" y="698" width="198" height="22" fill="#f1f5fa"/>
<text x="410" y="713" font-size="11.5" fill="#141d23">password_hash</text>
<text x="410" y="735" font-size="11.5" fill="#141d23">created_at</text>
<rect x="40" y="560" width="300" height="150" rx="8" fill="#fff" stroke="#dbe6f0"/>
<text x="54" y="584" font-size="12.5" font-weight="700" fill="#00346f">Legend</text>
<text x="54" y="606" font-size="11.5" fill="#141d23"><tspan fill="#1565c0" font-weight="700">PK</tspan> = primary key (underlined)</text>
<text x="54" y="626" font-size="11.5" fill="#141d23"><tspan fill="#1565c0" font-weight="700">FK</tspan> = foreign key</text>
<line x1="54" y1="646" x2="84" y2="646" stroke="#00346f" stroke-width="1.6"/>
<line x1="94" y1="639" x2="94" y2="653" stroke="#00346f" stroke-width="1.6"/>
<text x="96" y="650" font-size="11" fill="#141d23">&#8220;one&#8221; side</text>
<path d="M84,672 L96,665 M84,672 L96,679 M84,672 L96,672" stroke="#00346f" stroke-width="1.6" fill="none"/><circle cx="90" cy="672" r="3.2" fill="#fff" stroke="#00346f" stroke-width="1.6"/>
<line x1="54" y1="672" x2="84" y2="672" stroke="#00346f" stroke-width="1.6"/>
<text x="96" y="676" font-size="11" fill="#141d23">&#8220;many&#8221; side</text>
<text x="54" y="698" font-size="10.5" fill="#5e7a96">Each line: one parent row relates to many child rows.</text>
</svg>